<svg width="296" height="168" viewBox="0 0 296 168" fill="none" xmlns="http://www.w3.org/2000/svg">
<g clip-path="url(#clip0_2976_21025)">
<rect width="296" height="168" fill="#EEAAFF"/>
<g clip-path="url(#clip1_2976_21025)">
<rect x="56" y="16.469" width="184" height="196" rx="11" fill="white"/>
<path d="M121.974 123.618C121.974 135.437 112.392 145.018 100.573 145.018V148.943C114.56 148.943 125.899 137.605 125.899 123.618H121.974ZM100.573 145.018C88.7539 145.018 79.1726 135.437 79.1726 123.618H75.2476C75.2476 137.605 86.5862 148.943 100.573 148.943V145.018ZM79.1726 123.618C79.1726 111.799 88.7539 102.217 100.573 102.217V98.2924C86.5862 98.2924 75.2476 109.631 75.2476 123.618H79.1726ZM100.573 102.217C112.392 102.217 121.974 111.799 121.974 123.618H125.899C125.899 109.631 114.56 98.2924 100.573 98.2924V102.217Z" fill="#59E8B5"/>
<path d="M77.2101 123.618C77.2101 110.715 87.6701 100.255 100.573 100.255" stroke="#FF983A" stroke-width="3.92498" stroke-linecap="round"/>
<path d="M100.573 100.255C113.476 100.255 123.936 110.715 123.936 123.618C123.936 129.804 121.531 135.429 117.606 139.608" stroke="#59E8B5" stroke-width="3.92498" stroke-linecap="round"/>
<path d="M90.2899 128.388L93.6077 121.28H89.6392V119.494H96.415L92.3189 128.388H90.2899ZM95.6663 126.716L97.2486 125.772C97.5166 126.346 98.1291 126.729 98.8437 126.729C99.6987 126.729 100.273 126.193 100.273 125.389C100.273 124.585 99.5838 124.049 98.5375 124.049C97.7463 124.049 96.9169 124.189 96.3171 124.457L97.1466 119.494H101.626V121.28H98.6013L98.4099 122.454C98.6013 122.39 98.8565 122.365 99.0862 122.365C100.975 122.365 102.238 123.577 102.238 125.389C102.238 127.265 100.885 128.515 98.8437 128.515C97.4273 128.515 96.2278 127.788 95.6663 126.716ZM104.478 123.271C103.356 123.271 102.45 122.403 102.45 121.306C102.45 120.208 103.356 119.34 104.478 119.34C105.601 119.34 106.507 120.208 106.507 121.306C106.507 122.403 105.601 123.271 104.478 123.271ZM103.075 128.388L109.136 119.494H110.872L104.81 128.388H103.075ZM104.478 121.982C104.823 121.982 105.104 121.688 105.104 121.306C105.104 120.936 104.823 120.629 104.478 120.629C104.121 120.629 103.853 120.936 103.853 121.306C103.853 121.688 104.121 121.982 104.478 121.982ZM107.452 126.576C107.452 125.478 108.37 124.611 109.493 124.611C110.616 124.611 111.51 125.478 111.51 126.576C111.51 127.673 110.616 128.541 109.493 128.541C108.37 128.541 107.452 127.673 107.452 126.576ZM108.855 126.576C108.855 126.959 109.123 127.252 109.493 127.252C109.838 127.252 110.119 126.959 110.119 126.576C110.119 126.206 109.838 125.899 109.493 125.899C109.123 125.899 108.855 126.206 108.855 126.576Z" fill="#586380"/>
<rect x="153.607" y="96.469" width="70.7898" height="15.6071" rx="7.47615" fill="#E6FCF4"/>
<rect x="159.214" y="102.272" width="28.9678" height="4" rx="2" fill="#18AE79"/>
<path d="M215.957 106.272L216.991 104.742C216.919 104.768 216.821 104.781 216.729 104.781C216.055 104.781 215.231 104.212 215.231 103.244C215.231 102.347 215.977 101.634 216.879 101.634C217.828 101.634 218.528 102.354 218.528 103.231C218.528 103.767 218.234 104.218 217.821 104.827L216.866 106.272H215.957ZM216.879 104.088C217.409 104.088 217.736 103.702 217.736 103.231C217.736 102.76 217.35 102.38 216.879 102.38C216.415 102.38 216.029 102.76 216.029 103.231C216.029 103.702 216.415 104.088 216.879 104.088Z" fill="#18AE79"/>
<rect x="153.607" y="115.814" width="70.7898" height="15.6071" rx="7.47615" fill="#FFF6EF"/>
<rect x="159.214" y="121.618" width="36.5889" height="4" rx="2" fill="#D05700"/>
<path d="M215.08 124.761L215.734 124.401C215.904 124.748 216.284 124.95 216.768 124.95C217.311 124.95 217.703 124.617 217.703 124.12C217.703 123.622 217.304 123.276 216.683 123.276C216.362 123.276 216.087 123.302 215.852 123.38L217.101 121.797H215.499V121.058H218.508L217.212 122.674H217.219C217.939 122.713 218.501 123.348 218.501 124.1C218.501 125.009 217.821 125.696 216.781 125.696C215.989 125.696 215.355 125.33 215.08 124.761Z" fill="#D05700"/>
<rect x="153.607" y="135.159" width="70.7898" height="15.6071" rx="7.47615" fill="#EDEFF4"/>
<rect x="159.214" y="140.963" width="18.4145" height="4" rx="2" fill="#586380"/>
<path d="M218.458 141.718C218.478 141.934 218.478 142.137 218.478 142.68C218.478 143.223 218.478 143.432 218.458 143.648C218.367 144.485 217.719 145.048 216.836 145.048C215.953 145.048 215.305 144.485 215.213 143.648C215.194 143.432 215.194 143.223 215.194 142.68C215.194 142.137 215.194 141.934 215.213 141.718C215.305 140.881 215.953 140.318 216.836 140.318C217.719 140.318 218.367 140.881 218.458 141.718ZM217.66 143.563C217.68 143.393 217.68 143.17 217.68 142.68C217.68 142.189 217.68 141.986 217.667 141.816C217.621 141.365 217.287 141.064 216.836 141.064C216.384 141.064 216.051 141.365 216.005 141.816C215.992 141.986 215.992 142.189 215.992 142.68C215.992 143.17 215.992 143.393 216.012 143.563C216.051 144.008 216.384 144.302 216.836 144.302C217.287 144.302 217.621 144.008 217.66 143.563Z" fill="#586380"/>
<g filter="url(#filter0_d_2976_21025)">
<rect width="190" height="20" transform="translate(53 16.469)" fill="#F6F7FB"/>
<path d="M143.975 21.0385C143.975 20.3328 144.576 19.7607 145.317 19.7607H149.887C150.253 19.7607 150.603 19.9029 150.856 20.1543L153.664 22.9445C153.904 23.1824 154.037 23.4992 154.037 23.8287V29.9827C154.037 30.6884 153.437 31.2605 152.696 31.2605H145.317C144.576 31.2605 143.975 30.6884 143.975 29.9827V21.0385Z" fill="#7583FF"/>
<path d="M141.963 22.955C141.963 22.2493 142.563 21.6772 143.304 21.6772H147.875C148.24 21.6772 148.59 21.8194 148.843 22.0708L151.652 24.861C151.891 25.0989 152.025 25.4157 152.025 25.7452V31.8992C152.025 32.6049 151.424 33.177 150.683 33.177H143.304C142.563 33.177 141.963 32.6049 141.963 31.8992V22.955Z" fill="#4255FF"/>
<rect x="143.304" y="26.7883" width="5.36654" height="1.27775" rx="0.638875" fill="white"/>
<rect x="143.304" y="29.3438" width="4.02491" height="1.27775" rx="0.638874" fill="white"/>
</g>
<rect x="69.2832" y="54.4365" width="105.652" height="9.76748" rx="4.88374" fill="#D9DDE8"/>
<rect x="71.4072" y="79.759" width="58.3296" height="6.82479" rx="3.4124" fill="#D9DDE8"/>
</g>
</g>
<defs>
<filter id="filter0_d_2976_21025" x="49.5654" y="13.8931" width="196.869" height="26.8692" filterUnits="userSpaceOnUse" color-interpolation-filters="sRGB">
<feFlood flood-opacity="0" result="BackgroundImageFix"/>
<feColorMatrix in="SourceAlpha" type="matrix" values="0 0 0 0 0 0 0 0 0 0 0 0 0 0 0 0 0 0 127 0" result="hardAlpha"/>
<feOffset dy="0.858647"/>
<feGaussianBlur stdDeviation="1.71729"/>
<feColorMatrix type="matrix" values="0 0 0 0 0.188235 0 0 0 0 0.207843 0 0 0 0 0.270588 0 0 0 0.2 0"/>
<feBlend mode="normal" in2="BackgroundImageFix" result="effect1_dropShadow_2976_21025"/>
<feBlend mode="normal" in="SourceGraphic" in2="effect1_dropShadow_2976_21025" result="shape"/>
</filter>
<clipPath id="clip0_2976_21025">
<rect width="296" height="168" fill="white"/>
</clipPath>
<clipPath id="clip1_2976_21025">
<rect x="56" y="16.469" width="184" height="196" rx="11" fill="white"/>
</clipPath>
</defs>
</svg>